<svg width="57" height="52" viewBox="0 0 57 52" fill="none" xmlns="http://www.w3.org/2000/svg">
<path d="M35.6934 1.84961C39.8878 -0.515994 45.0558 -0.649018 49.3223 1.65918C51.9145 3.03229 54.1873 5.18143 55.5801 7.88281C57.669 12.0247 57.2562 17.049 55.6143 21.2666C53.7872 26.1682 50.5163 30.4009 46.7305 33.7715C42.8542 37.3125 38.3856 40.0451 34.627 43.6582C32.8199 45.3831 31.4006 47.4196 30.1064 49.5859C29.6532 50.3398 29.2416 51.1108 28.7881 51.8877C28.724 51.9982 28.5861 52.0334 28.4814 51.9648C28.4234 51.9268 28.3877 51.8639 28.3789 51.7979C28.318 51.3186 28.3155 50.8388 28.3428 50.3604C28.4598 48.4354 29.1343 46.5727 30.123 44.957C32.7755 40.6596 36.7716 37.4982 40.4746 34.3027C45.417 30.1175 50.071 25.5855 52.3096 19.1953C53.5249 15.8036 53.818 11.7601 51.8535 8.64648C49.9898 5.68606 46.8652 3.62614 43.5215 3.08789C41.2184 2.71251 38.8396 3.10634 36.6963 4.06641C34.0603 5.2415 31.8446 7.22619 29.7695 9.27441C29.4611 9.58159 29.1564 9.89772 28.8379 10.2129C28.6812 10.3732 28.4142 10.1979 28.4863 9.97559C29.6952 6.37027 32.5237 3.60317 35.6934 1.84961ZM1.33105 10.7559C3.92718 5.77297 9.57555 2.80108 14.9238 3.52148C18.3642 3.97762 21.5076 5.75799 23.8994 8.33105C24.4741 8.9678 24.9888 9.65982 25.4287 10.3975C25.8655 11.137 26.2394 11.9158 26.4883 12.7461C26.5528 12.9714 26.2944 13.1361 26.1348 12.9805C23.4229 10.3215 20.5088 7.55283 16.7969 6.68164C15.4264 6.34855 13.9874 6.2807 12.6025 6.50977C9.39341 7.04223 6.39198 9.10138 4.74902 12.0498C3.20473 14.9318 3.58256 18.482 4.70605 21.4844C7.45492 28.9947 13.5391 33.3029 19.1592 38.3066C21.0306 39.9973 22.8449 41.8006 24.3203 43.9053C24.8214 44.6229 25.2953 45.3689 25.667 46.1729C26.4073 47.7755 26.8292 49.5936 26.5898 51.375C26.5704 51.5033 26.4552 51.5908 26.333 51.5703C26.2688 51.5595 26.2151 51.5214 26.1816 51.4688C25.7424 50.7597 25.349 50.0523 24.918 49.3604C23.6967 47.389 22.3965 45.5208 20.7275 43.9414C17.2469 40.6204 13.1158 38.1085 9.53223 34.8418C6.01699 31.7194 2.9812 27.7874 1.28711 23.2393C-0.243932 19.3086 -0.620816 14.6098 1.33105 10.7559Z" fill="#FF0000"/>
</svg>
