<?xml version="1.0" encoding="utf-8"?>
<!-- Generator: Adobe Illustrator 27.5.0, SVG Export Plug-In . SVG Version: 6.00 Build 0)  -->
<svg version="1.1" xmlns="http://www.w3.org/2000/svg" xmlns:xlink="http://www.w3.org/1999/xlink" x="0px" y="0px"
	 viewBox="0 0 2200 2200" style="enable-background:new 0 0 2200 2200;" xml:space="preserve">
<g id="background">
	<rect style="fill:#FFFFFF;" width="2200" height="2200"/>
</g>
<g id="Objects">
	<g>
		<g>
			<path style="fill:#BF3434;" d="M1913.262,492.344c-41.827-77.223-110.079-138.647-187.927-177.899
				c-128.131-65.989-283.328-62.184-409.298,5.441c-95.194,50.129-180.156,129.223-216.457,232.291
				c-2.166,6.357,5.861,11.35,10.566,6.765c9.569-9.014,18.732-18.047,27.998-26.832c62.316-58.55,128.838-115.265,208-148.856
				c64.367-27.446,135.793-38.713,204.96-27.982c100.422,15.383,194.277,74.265,250.248,158.896
				c58.995,89.006,50.19,204.592,13.691,301.548c-67.228,182.677-207.007,312.232-355.438,431.873
				c-111.207,91.344-231.189,181.709-310.846,304.554c-29.695,46.189-49.968,99.433-53.479,154.465
				c-0.819,13.676-0.739,27.369,1.09,41.069c0.263,1.892,1.337,3.689,3.086,4.777c3.142,1.959,7.287,0.968,9.212-2.193
				c13.621-22.21,25.962-44.262,39.575-65.815c38.867-61.927,81.498-120.125,135.768-169.434
				c112.877-103.283,247.071-181.386,363.48-282.609c113.697-96.354,211.911-217.364,266.781-357.483
				C1963.58,754.357,1975.994,610.742,1913.262,492.344z"/>
			<path style="fill:#BF3434;" d="M974.491,1522.067c-44.308-60.165-98.79-111.712-154.992-160.042
				c-168.78-143.038-351.503-266.184-434.054-480.875c-33.74-85.826-45.085-187.306,1.292-269.689
				c49.34-84.283,139.461-143.134,235.835-158.355c41.595-6.551,84.798-4.61,125.961,4.913
				c111.48,24.901,198.997,104.038,280.441,180.05c4.795,4.448,12.565-0.266,10.627-6.707
				c-7.473-23.735-18.721-45.982-31.838-67.123c-13.213-21.089-28.657-40.883-45.918-59.087
				c-71.828-73.553-166.225-124.442-269.542-137.481c-160.619-20.596-330.252,64.363-408.216,206.808
				c-58.617,110.167-47.307,244.475-1.328,356.835c50.876,130.018,142.055,242.422,247.627,331.681
				c107.618,93.38,231.664,165.172,336.193,260.105c50.128,45.153,89.183,98.561,125.865,154.922
				c12.943,19.781,24.751,39.981,37.941,60.251c1.004,1.509,2.611,2.61,4.542,2.918c3.669,0.585,7.118-1.914,7.703-5.583
				c7.192-50.926-5.478-102.893-27.712-148.708C1003.754,1563.917,989.541,1542.582,974.491,1522.067z"/>
		</g>
		<ellipse style="fill:#DDDDDD;" cx="1079.788" cy="1901.746" rx="426.007" ry="31.254"/>
	</g>
</g>
</svg>
